<svg width="2626" height="779" xmlns="http://www.w3.org/2000/svg" xmlns:xlink="http://www.w3.org/1999/xlink" xml:space="preserve" overflow="hidden"><defs><clipPath id="clip0"><rect x="811" y="875" width="2626" height="779"/></clipPath><clipPath id="clip1"><rect x="1755" y="692" width="245" height="1002"/></clipPath><clipPath id="clip2"><rect x="1755" y="868" width="245" height="1002"/></clipPath><clipPath id="clip3"><rect x="1999" y="1044" width="259" height="1002"/></clipPath></defs><g clip-path="url(#clip0)" transform="translate(-811 -875)"><path d="M1755.74 995.5 1999.59 995.5 1999.59 1105.5 1755.74 1105.5Z" fill="#FFFFFF" fill-rule="evenodd" fill-opacity="1"/><path d="M1999.59 995.5 2257.91 995.5 2257.91 1105.5 1999.59 1105.5Z" fill="#FFFFFF" fill-rule="evenodd" fill-opacity="1"/><path d="M2257.91 995.5 2487.58 995.5 2487.58 1105.5 2257.91 1105.5Z" fill="#FFFFFF" fill-rule="evenodd" fill-opacity="1"/><path d="M1755.74 1105.5 1999.59 1105.5 1999.59 1281.5 1755.74 1281.5Z" fill="#FFFFFF" fill-rule="evenodd" fill-opacity="1"/><path d="M1999.59 1105.5 2257.91 1105.5 2257.91 1281.5 1999.59 1281.5Z" fill="#FFFFFF" fill-rule="evenodd" fill-opacity="1"/><path d="M2257.91 1105.5 2487.58 1105.5 2487.58 1281.5 2257.91 1281.5Z" fill="#FFFFFF" fill-rule="evenodd" fill-opacity="1"/><path d="M1755.74 1281.5 1999.59 1281.5 1999.59 1457.5 1755.74 1457.5Z" fill="#FFFFFF" fill-rule="evenodd" fill-opacity="1"/><path d="M1999.59 1281.5 2257.91 1281.5 2257.91 1457.5 1999.59 1457.5Z" fill="#FFFFFF" fill-rule="evenodd" fill-opacity="1"/><path d="M2257.91 1281.5 2487.58 1281.5 2487.58 1457.5 2257.91 1457.5Z" fill="#FFFFFF" fill-rule="evenodd" fill-opacity="1"/><path d="M1755.74 1457.5 1999.59 1457.5 1999.59 1633.5 1755.74 1633.5Z" fill="#FFFFFF" fill-rule="evenodd" fill-opacity="1"/><path d="M1999.59 1457.5 2257.91 1457.5 2257.91 1633.5 1999.59 1633.5Z" fill="#FFFFFF" fill-rule="evenodd" fill-opacity="1"/><path d="M2257.91 1457.5 2487.58 1457.5 2487.58 1633.5 2257.91 1633.5Z" fill="#FFFFFF" fill-rule="evenodd" fill-opacity="1"/><path d="M1753.45 1105.5 2489.87 1105.5" stroke="#A5A5A5" stroke-width="4.58333" stroke-linecap="butt" stroke-linejoin="round" stroke-miterlimit="10" stroke-opacity="1" fill="none" fill-rule="evenodd"/><path d="M1755.74 993.208 1755.74 1635.79" stroke="#A5A5A5" stroke-width="4.58333" stroke-linecap="butt" stroke-linejoin="round" stroke-miterlimit="10" stroke-opacity="1" fill="none" fill-rule="evenodd"/><path d="M2487.58 993.208 2487.58 1635.79" stroke="#A5A5A5" stroke-width="4.58333" stroke-linecap="butt" stroke-linejoin="round" stroke-miterlimit="10" stroke-opacity="1" fill="none" fill-rule="evenodd"/><path d="M1753.45 995.5 2489.87 995.5" stroke="#A5A5A5" stroke-width="4.58333" stroke-linecap="butt" stroke-linejoin="round" stroke-miterlimit="10" stroke-opacity="1" fill="none" fill-rule="evenodd"/><path d="M1753.45 1633.5 2489.87 1633.5" stroke="#A5A5A5" stroke-width="4.58333" stroke-linecap="butt" stroke-linejoin="round" stroke-miterlimit="10" stroke-opacity="1" fill="none" fill-rule="evenodd"/><text fill="#000000" fill-opacity="1" font-family="Times,Times_MSFontService,sans-serif" font-style="normal" font-variant="normal" font-weight="700" font-stretch="normal" font-size="64" text-anchor="start" direction="ltr" writing-mode="lr-tb" unicode-bidi="normal" text-decoration="none" transform="matrix(1 0 0 1 1801.74 1070)">From</text><text fill="#000000" fill-opacity="1" font-family="Times,Times_MSFontService,sans-serif" font-style="normal" font-variant="normal" font-weight="700" font-stretch="normal" font-size="64" text-anchor="start" direction="ltr" writing-mode="lr-tb" unicode-bidi="normal" text-decoration="none" transform="matrix(1 0 0 1 2094.17 1070)">To</text><text fill="#000000" fill-opacity="1" font-family="Times,Times_MSFontService,sans-serif" font-style="normal" font-variant="normal" font-weight="700" font-stretch="normal" font-size="64" text-anchor="start" direction="ltr" writing-mode="lr-tb" unicode-bidi="normal" text-decoration="none" transform="matrix(1 0 0 1 2312.3 1070)">Amt</text><g clip-path="url(#clip1)"><text fill="#000000" fill-opacity="1" font-family="Times,Times_MSFontService,sans-serif" font-style="normal" font-variant="normal" font-weight="400" font-stretch="normal" font-size="64" text-anchor="start" direction="ltr" writing-mode="lr-tb" unicode-bidi="normal" text-decoration="none" transform="matrix(1 0 0 1 1808.06 1180)">Alice </text></g><text fill="#A5A5A5" fill-opacity="1" font-family="Times,Times_MSFontService,sans-serif" font-style="normal" font-variant="normal" font-weight="400" font-stretch="normal" font-size="55" text-anchor="start" direction="ltr" writing-mode="lr-tb" unicode-bidi="normal" text-decoration="none" transform="matrix(1 0 0 1 1831.85 1249)">(50)</text><text fill="#000000" fill-opacity="1" font-family="Times,Times_MSFontService,sans-serif" font-style="normal" font-variant="normal" font-weight="400" font-stretch="normal" font-size="64" text-anchor="start" direction="ltr" writing-mode="lr-tb" unicode-bidi="normal" text-decoration="none" transform="matrix(1 0 0 1 2057.42 1180)">Carol </text><text fill="#A5A5A5" fill-opacity="1" font-family="Times,Times_MSFontService,sans-serif" font-style="normal" font-variant="normal" font-weight="400" font-stretch="normal" font-size="55" text-anchor="start" direction="ltr" writing-mode="lr-tb" unicode-bidi="normal" text-decoration="none" transform="matrix(1 0 0 1 2082.91 1249)">(50)</text><text fill="#000000" fill-opacity="1" font-family="Times,Times_MSFontService,sans-serif" font-style="normal" font-variant="normal" font-weight="400" font-stretch="normal" font-size="64" text-anchor="start" direction="ltr" writing-mode="lr-tb" unicode-bidi="normal" text-decoration="none" transform="matrix(1 0 0 1 2340.66 1213)">50</text><g clip-path="url(#clip2)"><text fill="#000000" fill-opacity="1" font-family="Times,Times_MSFontService,sans-serif" font-style="normal" font-variant="normal" font-weight="400" font-stretch="normal" font-size="64" text-anchor="start" direction="ltr" writing-mode="lr-tb" unicode-bidi="normal" text-decoration="none" transform="matrix(1 0 0 1 1806.34 1356)">Carol </text></g><text fill="#A5A5A5" fill-opacity="1" font-family="Times,Times_MSFontService,sans-serif" font-style="normal" font-variant="normal" font-weight="400" font-stretch="normal" font-size="55" text-anchor="start" direction="ltr" writing-mode="lr-tb" unicode-bidi="normal" text-decoration="none" transform="matrix(1 0 0 1 1818.1 1425)">(100)</text><text fill="#000000" fill-opacity="1" font-family="Times,Times_MSFontService,sans-serif" font-style="normal" font-variant="normal" font-weight="400" font-stretch="normal" font-size="64" text-anchor="start" direction="ltr" writing-mode="lr-tb" unicode-bidi="normal" text-decoration="none" transform="matrix(1 0 0 1 2075.18 1356)">Bob </text><text fill="#A5A5A5" fill-opacity="1" font-family="Times,Times_MSFontService,sans-serif" font-style="normal" font-variant="normal" font-weight="400" font-stretch="normal" font-size="55" text-anchor="start" direction="ltr" writing-mode="lr-tb" unicode-bidi="normal" text-decoration="none" transform="matrix(1 0 0 1 2082.91 1425)">(50)</text><text fill="#000000" fill-opacity="1" font-family="Times,Times_MSFontService,sans-serif" font-style="normal" font-variant="normal" font-weight="400" font-stretch="normal" font-size="64" text-anchor="start" direction="ltr" writing-mode="lr-tb" unicode-bidi="normal" text-decoration="none" transform="matrix(1 0 0 1 2340.66 1389)">75</text><text fill="#000000" fill-opacity="1" font-family="Times,Times_MSFontService,sans-serif" font-style="normal" font-variant="normal" font-weight="400" font-stretch="normal" font-size="64" text-anchor="start" direction="ltr" writing-mode="lr-tb" unicode-bidi="normal" text-decoration="none" transform="matrix(1 0 0 1 1867.07 1565)">-</text><g clip-path="url(#clip3)"><text fill="#000000" fill-opacity="1" font-family="Times,Times_MSFontService,sans-serif" font-style="normal" font-variant="normal" font-weight="400" font-stretch="normal" font-size="64" text-anchor="start" direction="ltr" writing-mode="lr-tb" unicode-bidi="normal" text-decoration="none" transform="matrix(1 0 0 1 2050.26 1532)">David </text></g><text fill="#A5A5A5" fill-opacity="1" font-family="Times,Times_MSFontService,sans-serif" font-style="normal" font-variant="normal" font-weight="400" font-stretch="normal" font-size="55" text-anchor="start" direction="ltr" writing-mode="lr-tb" unicode-bidi="normal" text-decoration="none" transform="matrix(1 0 0 1 2096.67 1601)">(0)</text><text fill="#000000" fill-opacity="1" font-family="Times,Times_MSFontService,sans-serif" font-style="normal" font-variant="normal" font-weight="400" font-stretch="normal" font-size="64" text-anchor="start" direction="ltr" writing-mode="lr-tb" unicode-bidi="normal" text-decoration="none" transform="matrix(1 0 0 1 2340.66 1565)">50</text><path d="M815.393 995.5 1059.24 995.5 1059.24 1105.5 815.393 1105.5Z" fill="#FFFFFF" fill-rule="evenodd" fill-opacity="1"/><path d="M1059.24 995.5 1317.56 995.5 1317.56 1105.5 1059.24 1105.5Z" fill="#FFFFFF" fill-rule="evenodd" fill-opacity="1"/><path d="M1317.56 995.5 1547.23 995.5 1547.23 1105.5 1317.56 1105.5Z" fill="#FFFFFF" fill-rule="evenodd" fill-opacity="1"/><path d="M815.393 1105.5 1059.24 1105.5 1059.24 1281.5 815.393 1281.5Z" fill="#FFFFFF" fill-rule="evenodd" fill-opacity="1"/><path d="M1059.24 1105.5 1317.56 1105.5 1317.56 1281.5 1059.24 1281.5Z" fill="#FFFFFF" fill-rule="evenodd" fill-opacity="1"/><path d="M1317.56 1105.5 1547.23 1105.5 1547.23 1281.5 1317.56 1281.5Z" fill="#FFFFFF" fill-rule="evenodd" fill-opacity="1"/><path d="M815.393 1281.5 1059.24 1281.5 1059.24 1457.5 815.393 1457.5Z" fill="#FFFFFF" fill-rule="evenodd" fill-opacity="1"/><path d="M1059.24 1281.5 1317.56 1281.5 1317.56 1457.5 1059.24 1457.5Z" fill="#FFFFFF" fill-rule="evenodd" fill-opacity="1"/><path d="M1317.56 1281.5 1547.23 1281.5 1547.23 1457.5 1317.56 1457.5Z" fill="#FFFFFF" fill-rule="evenodd" fill-opacity="1"/><path d="M815.393 1457.5 1059.24 1457.5 1059.24 1633.5 815.393 1633.5Z" fill="#FFFFFF" fill-rule="evenodd" fill-opacity="1"/><path d="M1059.24 1457.5 1317.56 1457.5 1317.56 1633.5 1059.24 1633.5Z" fill="#FFFFFF" fill-rule="evenodd" fill-opacity="1"/><path d="M1317.56 1457.5 1547.23 1457.5 1547.23 1633.5 1317.56 1633.5Z" fill="#FFFFFF" fill-rule="evenodd" fill-opacity="1"/><path d="M813.101 1105.5 1549.52 1105.5" stroke="#A5A5A5" stroke-width="4.58333" stroke-linecap="butt" stroke-linejoin="round" stroke-miterlimit="10" stroke-opacity="1" fill="none" fill-rule="evenodd"/><path d="M815.393 993.208 815.393 1635.79" stroke="#A5A5A5" stroke-width="4.58333" stroke-linecap="butt" stroke-linejoin="round" stroke-miterlimit="10" stroke-opacity="1" fill="none" fill-rule="evenodd"/><path d="M1547.23 993.208 1547.23 1635.79" stroke="#A5A5A5" stroke-width="4.58333" stroke-linecap="butt" stroke-linejoin="round" stroke-miterlimit="10" stroke-opacity="1" fill="none" fill-rule="evenodd"/><path d="M813.101 995.5 1549.52 995.5" stroke="#A5A5A5" stroke-width="4.58333" stroke-linecap="butt" stroke-linejoin="round" stroke-miterlimit="10" stroke-opacity="1" fill="none" fill-rule="evenodd"/><path d="M813.101 1633.5 1549.52 1633.5" stroke="#A5A5A5" stroke-width="4.58333" stroke-linecap="butt" stroke-linejoin="round" stroke-miterlimit="10" stroke-opacity="1" fill="none" fill-rule="evenodd"/><text fill="#000000" fill-opacity="1" font-family="Times,Times_MSFontService,sans-serif" font-style="normal" font-variant="normal" font-weight="700" font-stretch="normal" font-size="64" text-anchor="start" direction="ltr" writing-mode="lr-tb" unicode-bidi="normal" text-decoration="none" transform="matrix(1 0 0 1 861.395 1070)">From</text><text fill="#000000" fill-opacity="1" font-family="Times,Times_MSFontService,sans-serif" font-style="normal" font-variant="normal" font-weight="700" font-stretch="normal" font-size="64" text-anchor="start" direction="ltr" writing-mode="lr-tb" unicode-bidi="normal" text-decoration="none" transform="matrix(1 0 0 1 1153.82 1070)">To</text><text fill="#000000" fill-opacity="1" font-family="Times,Times_MSFontService,sans-serif" font-style="normal" font-variant="normal" font-weight="700" font-stretch="normal" font-size="64" text-anchor="start" direction="ltr" writing-mode="lr-tb" unicode-bidi="normal" text-decoration="none" transform="matrix(1 0 0 1 1371.95 1070)">Amt</text><text fill="#000000" fill-opacity="1" font-family="Times,Times_MSFontService,sans-serif" font-style="normal" font-variant="normal" font-weight="400" font-stretch="normal" font-size="64" text-anchor="start" direction="ltr" writing-mode="lr-tb" unicode-bidi="normal" text-decoration="none" transform="matrix(1 0 0 1 926.719 1213)">-</text><text fill="#000000" fill-opacity="1" font-family="Times,Times_MSFontService,sans-serif" font-style="normal" font-variant="normal" font-weight="400" font-stretch="normal" font-size="64" text-anchor="start" direction="ltr" writing-mode="lr-tb" unicode-bidi="normal" text-decoration="none" transform="matrix(1 0 0 1 1118.79 1180)">Alice </text><text fill="#A5A5A5" fill-opacity="1" font-family="Times,Times_MSFontService,sans-serif" font-style="normal" font-variant="normal" font-weight="400" font-stretch="normal" font-size="55" text-anchor="start" direction="ltr" writing-mode="lr-tb" unicode-bidi="normal" text-decoration="none" transform="matrix(1 0 0 1 1156.31 1249)">(0)</text><text fill="#000000" fill-opacity="1" font-family="Times,Times_MSFontService,sans-serif" font-style="normal" font-variant="normal" font-weight="400" font-stretch="normal" font-size="64" text-anchor="start" direction="ltr" writing-mode="lr-tb" unicode-bidi="normal" text-decoration="none" transform="matrix(1 0 0 1 1400.31 1213)">50</text><text fill="#000000" fill-opacity="1" font-family="Times,Times_MSFontService,sans-serif" font-style="normal" font-variant="normal" font-weight="400" font-stretch="normal" font-size="64" text-anchor="start" direction="ltr" writing-mode="lr-tb" unicode-bidi="normal" text-decoration="none" transform="matrix(1 0 0 1 926.719 1389)">-</text><text fill="#000000" fill-opacity="1" font-family="Times,Times_MSFontService,sans-serif" font-style="normal" font-variant="normal" font-weight="400" font-stretch="normal" font-size="64" text-anchor="start" direction="ltr" writing-mode="lr-tb" unicode-bidi="normal" text-decoration="none" transform="matrix(1 0 0 1 1134.83 1356)">Bob </text><text fill="#A5A5A5" fill-opacity="1" font-family="Times,Times_MSFontService,sans-serif" font-style="normal" font-variant="normal" font-weight="400" font-stretch="normal" font-size="55" text-anchor="start" direction="ltr" writing-mode="lr-tb" unicode-bidi="normal" text-decoration="none" transform="matrix(1 0 0 1 1156.31 1425)">(0)</text><text fill="#000000" fill-opacity="1" font-family="Times,Times_MSFontService,sans-serif" font-style="normal" font-variant="normal" font-weight="400" font-stretch="normal" font-size="64" text-anchor="start" direction="ltr" writing-mode="lr-tb" unicode-bidi="normal" text-decoration="none" transform="matrix(1 0 0 1 1400.31 1389)">50</text><text fill="#000000" fill-opacity="1" font-family="Times,Times_MSFontService,sans-serif" font-style="normal" font-variant="normal" font-weight="400" font-stretch="normal" font-size="64" text-anchor="start" direction="ltr" writing-mode="lr-tb" unicode-bidi="normal" text-decoration="none" transform="matrix(1 0 0 1 926.719 1565)">-</text><text fill="#000000" fill-opacity="1" font-family="Times,Times_MSFontService,sans-serif" font-style="normal" font-variant="normal" font-weight="400" font-stretch="normal" font-size="64" text-anchor="start" direction="ltr" writing-mode="lr-tb" unicode-bidi="normal" text-decoration="none" transform="matrix(1 0 0 1 1117.07 1532)">Carol </text><text fill="#A5A5A5" fill-opacity="1" font-family="Times,Times_MSFontService,sans-serif" font-style="normal" font-variant="normal" font-weight="400" font-stretch="normal" font-size="55" text-anchor="start" direction="ltr" writing-mode="lr-tb" unicode-bidi="normal" text-decoration="none" transform="matrix(1 0 0 1 1156.31 1601)">(0)</text><text fill="#000000" fill-opacity="1" font-family="Times,Times_MSFontService,sans-serif" font-style="normal" font-variant="normal" font-weight="400" font-stretch="normal" font-size="64" text-anchor="start" direction="ltr" writing-mode="lr-tb" unicode-bidi="normal" text-decoration="none" transform="matrix(1 0 0 1 1400.31 1565)">50</text><path d="M2696.09 995.5 2939.94 995.5 2939.94 1105.5 2696.09 1105.5Z" fill="#FFFFFF" fill-rule="evenodd" fill-opacity="1"/><path d="M2939.94 995.5 3198.26 995.5 3198.26 1105.5 2939.94 1105.5Z" fill="#FFFFFF" fill-rule="evenodd" fill-opacity="1"/><path d="M3198.26 995.5 3427.93 995.5 3427.93 1105.5 3198.26 1105.5Z" fill="#FFFFFF" fill-rule="evenodd" fill-opacity="1"/><path d="M2696.09 1105.5 2939.94 1105.5 2939.94 1281.5 2696.09 1281.5Z" fill="#FFFFFF" fill-rule="evenodd" fill-opacity="1"/><path d="M2939.94 1105.5 3198.26 1105.5 3198.26 1281.5 2939.94 1281.5Z" fill="#FFFFFF" fill-rule="evenodd" fill-opacity="1"/><path d="M3198.26 1105.5 3427.93 1105.5 3427.93 1281.5 3198.26 1281.5Z" fill="#FFFFFF" fill-rule="evenodd" fill-opacity="1"/><path d="M2696.09 1281.5 2939.94 1281.5 2939.94 1457.5 2696.09 1457.5Z" fill="#FFFFFF" fill-rule="evenodd" fill-opacity="1"/><path d="M2939.94 1281.5 3198.26 1281.5 3198.26 1457.5 2939.94 1457.5Z" fill="#FFFFFF" fill-rule="evenodd" fill-opacity="1"/><path d="M3198.26 1281.5 3427.93 1281.5 3427.93 1457.5 3198.26 1457.5Z" fill="#FFFFFF" fill-rule="evenodd" fill-opacity="1"/><path d="M2693.8 1105.5 3430.22 1105.5" stroke="#A5A5A5" stroke-width="4.58333" stroke-linecap="butt" stroke-linejoin="round" stroke-miterlimit="10" stroke-opacity="1" fill="none" fill-rule="evenodd"/><path d="M2696.09 993.208 2696.09 1459.79" stroke="#A5A5A5" stroke-width="4.58333" stroke-linecap="butt" stroke-linejoin="round" stroke-miterlimit="10" stroke-opacity="1" fill="none" fill-rule="evenodd"/><path d="M3427.93 993.208 3427.93 1459.79" stroke="#A5A5A5" stroke-width="4.58333" stroke-linecap="butt" stroke-linejoin="round" stroke-miterlimit="10" stroke-opacity="1" fill="none" fill-rule="evenodd"/><path d="M2693.8 995.5 3430.22 995.5" stroke="#A5A5A5" stroke-width="4.58333" stroke-linecap="butt" stroke-linejoin="round" stroke-miterlimit="10" stroke-opacity="1" fill="none" fill-rule="evenodd"/><path d="M2693.8 1457.5 3430.22 1457.5" stroke="#A5A5A5" stroke-width="4.58333" stroke-linecap="butt" stroke-linejoin="round" stroke-miterlimit="10" stroke-opacity="1" fill="none" fill-rule="evenodd"/><text fill="#000000" fill-opacity="1" font-family="Times,Times_MSFontService,sans-serif" font-style="normal" font-variant="normal" font-weight="700" font-stretch="normal" font-size="64" text-anchor="start" direction="ltr" writing-mode="lr-tb" unicode-bidi="normal" text-decoration="none" transform="matrix(1 0 0 1 2742.09 1070)">From</text><text fill="#000000" fill-opacity="1" font-family="Times,Times_MSFontService,sans-serif" font-style="normal" font-variant="normal" font-weight="700" font-stretch="normal" font-size="64" text-anchor="start" direction="ltr" writing-mode="lr-tb" unicode-bidi="normal" text-decoration="none" transform="matrix(1 0 0 1 3034.52 1070)">To</text><text fill="#000000" fill-opacity="1" font-family="Times,Times_MSFontService,sans-serif" font-style="normal" font-variant="normal" font-weight="700" font-stretch="normal" font-size="64" text-anchor="start" direction="ltr" writing-mode="lr-tb" unicode-bidi="normal" text-decoration="none" transform="matrix(1 0 0 1 3252.65 1070)">Amt</text><text fill="#000000" fill-opacity="1" font-family="Times,Times_MSFontService,sans-serif" font-style="normal" font-variant="normal" font-weight="400" font-stretch="normal" font-size="64" text-anchor="start" direction="ltr" writing-mode="lr-tb" unicode-bidi="normal" text-decoration="none" transform="matrix(1 0 0 1 2764.44 1180)">Bob </text><text fill="#A5A5A5" fill-opacity="1" font-family="Times,Times_MSFontService,sans-serif" font-style="normal" font-variant="normal" font-weight="400" font-stretch="normal" font-size="55" text-anchor="start" direction="ltr" writing-mode="lr-tb" unicode-bidi="normal" text-decoration="none" transform="matrix(1 0 0 1 2758.43 1249)">(125)</text><text fill="#000000" fill-opacity="1" font-family="Times,Times_MSFontService,sans-serif" font-style="normal" font-variant="normal" font-weight="400" font-stretch="normal" font-size="64" text-anchor="start" direction="ltr" writing-mode="lr-tb" unicode-bidi="normal" text-decoration="none" transform="matrix(1 0 0 1 2999.49 1180)">Alice </text><text fill="#A5A5A5" fill-opacity="1" font-family="Times,Times_MSFontService,sans-serif" font-style="normal" font-variant="normal" font-weight="400" font-stretch="normal" font-size="55" text-anchor="start" direction="ltr" writing-mode="lr-tb" unicode-bidi="normal" text-decoration="none" transform="matrix(1 0 0 1 3037 1249)">(0)</text><text fill="#000000" fill-opacity="1" font-family="Times,Times_MSFontService,sans-serif" font-style="normal" font-variant="normal" font-weight="400" font-stretch="normal" font-size="64" text-anchor="start" direction="ltr" writing-mode="lr-tb" unicode-bidi="normal" text-decoration="none" transform="matrix(1 0 0 1 3281.01 1213)">40</text><text fill="#000000" fill-opacity="1" font-family="Times,Times_MSFontService,sans-serif" font-style="normal" font-variant="normal" font-weight="400" font-stretch="normal" font-size="64" text-anchor="start" direction="ltr" writing-mode="lr-tb" unicode-bidi="normal" text-decoration="none" transform="matrix(1 0 0 1 2764.45 1356)">Bob </text><text fill="#A5A5A5" fill-opacity="1" font-family="Times,Times_MSFontService,sans-serif" font-style="normal" font-variant="normal" font-weight="400" font-stretch="normal" font-size="55" text-anchor="start" direction="ltr" writing-mode="lr-tb" unicode-bidi="normal" text-decoration="none" transform="matrix(1 0 0 1 2772.19 1425)">(85)</text><text fill="#000000" fill-opacity="1" font-family="Times,Times_MSFontService,sans-serif" font-style="normal" font-variant="normal" font-weight="400" font-stretch="normal" font-size="64" text-anchor="start" direction="ltr" writing-mode="lr-tb" unicode-bidi="normal" text-decoration="none" transform="matrix(1 0 0 1 2999.49 1356)">Alice </text><text fill="#A5A5A5" fill-opacity="1" font-family="Times,Times_MSFontService,sans-serif" font-style="normal" font-variant="normal" font-weight="400" font-stretch="normal" font-size="55" text-anchor="start" direction="ltr" writing-mode="lr-tb" unicode-bidi="normal" text-decoration="none" transform="matrix(1 0 0 1 3023.25 1425)">(40)</text><text fill="#000000" fill-opacity="1" font-family="Times,Times_MSFontService,sans-serif" font-style="normal" font-variant="normal" font-weight="400" font-stretch="normal" font-size="64" text-anchor="start" direction="ltr" writing-mode="lr-tb" unicode-bidi="normal" text-decoration="none" transform="matrix(1 0 0 1 3281.01 1389)">10</text><text fill="#0070C0" fill-opacity="1" font-family="Calibri,Calibri_MSFontService,sans-serif" font-style="normal" font-variant="normal" font-weight="400" font-stretch="normal" font-size="64" text-anchor="start" direction="ltr" writing-mode="lr-tb" unicode-bidi="normal" text-decoration="none" transform="matrix(1 0 0 1 1086.69 958)">Block 1</text><text fill="#0070C0" fill-opacity="1" font-family="Calibri,Calibri_MSFontService,sans-serif" font-style="normal" font-variant="normal" font-weight="400" font-stretch="normal" font-size="64" text-anchor="start" direction="ltr" writing-mode="lr-tb" unicode-bidi="normal" text-decoration="none" transform="matrix(1 0 0 1 2104.85 958)">2</text><text fill="#0070C0" fill-opacity="1" font-family="Calibri,Calibri_MSFontService,sans-serif" font-style="normal" font-variant="normal" font-weight="400" font-stretch="normal" font-size="64" text-anchor="start" direction="ltr" writing-mode="lr-tb" unicode-bidi="normal" text-decoration="none" transform="matrix(1 0 0 1 3045.2 958)">3</text><path d="M1547 1056.14 1732.59 1056.14 1732.59 1061.86 1547 1061.86ZM1728.01 1045.25 1755.51 1059 1728.01 1072.75Z" fill="#A5A5A5" fill-rule="nonzero" fill-opacity="1"/><path d="M2488 1056.14 2673.59 1056.14 2673.59 1061.86 2488 1061.86ZM2669.01 1045.25 2696.51 1059 2669.01 1072.75Z" fill="#A5A5A5" fill-rule="nonzero" fill-opacity="1"/></g></svg>