<svg width="3208" height="1229" xmlns="http://www.w3.org/2000/svg" xmlns:xlink="http://www.w3.org/1999/xlink" xml:space="preserve" overflow="hidden"><defs><clipPath id="clip0"><rect x="701" y="595" width="3208" height="1229"/></clipPath><clipPath id="clip1"><rect x="3491" y="999" width="90" height="90"/></clipPath><clipPath id="clip2"><rect x="3491" y="999" width="90" height="90"/></clipPath><clipPath id="clip3"><rect x="3491" y="999" width="90" height="90"/></clipPath><clipPath id="clip4"><rect x="1229" y="1325" width="181" height="180"/></clipPath><clipPath id="clip5"><rect x="1229" y="1325" width="181" height="180"/></clipPath><clipPath id="clip6"><rect x="1229" y="1325" width="181" height="180"/></clipPath><clipPath id="clip7"><rect x="822" y="790" width="181" height="181"/></clipPath><clipPath id="clip8"><rect x="822" y="790" width="181" height="181"/></clipPath><clipPath id="clip9"><rect x="822" y="790" width="181" height="181"/></clipPath><clipPath id="clip10"><rect x="1632" y="796" width="179" height="178"/></clipPath><clipPath id="clip11"><rect x="1632" y="796" width="179" height="178"/></clipPath><clipPath id="clip12"><rect x="1632" y="796" width="179" height="178"/></clipPath><clipPath id="clip13"><rect x="3031" y="1400" width="180" height="179"/></clipPath><clipPath id="clip14"><rect x="3031" y="1400" width="180" height="179"/></clipPath><clipPath id="clip15"><rect x="3031" y="1400" width="180" height="179"/></clipPath><clipPath id="clip16"><rect x="2603" y="819" width="179" height="178"/></clipPath><clipPath id="clip17"><rect x="2603" y="819" width="179" height="178"/></clipPath><clipPath id="clip18"><rect x="2603" y="819" width="179" height="178"/></clipPath><clipPath id="clip19"><rect x="3443" y="820" width="180" height="180"/></clipPath><clipPath id="clip20"><rect x="3443" y="820" width="180" height="180"/></clipPath><clipPath id="clip21"><rect x="3443" y="820" width="180" height="180"/></clipPath><clipPath id="clip22"><rect x="2646" y="996" width="90" height="91"/></clipPath><clipPath id="clip23"><rect x="2646" y="996" width="90" height="91"/></clipPath><clipPath id="clip24"><rect x="2646" y="996" width="90" height="91"/></clipPath></defs><g clip-path="url(#clip0)" transform="translate(-701 -595)"><text fill="#000000" fill-opacity="1" font-family="Times,Times_MSFontService,sans-serif" font-style="normal" font-variant="normal" font-weight="400" font-stretch="normal" font-size="73" text-anchor="start" direction="ltr" writing-mode="lr-tb" unicode-bidi="normal" text-decoration="none" transform="matrix(1 0 0 1 1196.94 1566)">proposer</text><g clip-path="url(#clip1)"><g clip-path="url(#clip2)"><g clip-path="url(#clip3)"><path d="M86.636 17.6609C85.6625 16.6875 84.1328 16.6875 83.1594 17.6609L32.4016 66.8891C31.9844 67.3063 31.4281 67.3063 31.0109 66.8891L5.84063 42.4141C4.86719 41.4406 3.3375 41.4406 2.36406 42.4141 1.39063 43.3875 1.39063 44.9172 2.36406 45.8906L27.5344 70.3656C28.6469 71.4781 30.1766 72.0344 31.5672 72.0344 33.0969 72.0344 34.4875 71.4781 35.6 70.3656L86.3578 21.1375C87.4703 20.1641 87.4703 18.6344 86.636 17.6609Z" stroke="#08CE88" stroke-width="4.17188" stroke-linecap="butt" stroke-linejoin="miter" stroke-miterlimit="4" stroke-opacity="1" fill="#08CE88" fill-rule="nonzero" fill-opacity="1" transform="matrix(1.01123 0 0 1 3491 1000)"/></g></g></g><g clip-path="url(#clip4)"><g clip-path="url(#clip5)"><g clip-path="url(#clip6)"><path d="M1385.23 1352.29 1253.77 1352.29C1242.87 1352.29 1234.2 1361.24 1234.2 1371.87L1234.2 1429.48C1234.2 1440.39 1243.15 1449.06 1253.77 1449.06L1315.3 1449.06 1315.3 1470.04 1290.13 1470.04C1287.9 1470.04 1285.94 1472 1285.94 1474.23 1285.94 1476.47 1287.9 1478.43 1290.13 1478.43L1349.15 1478.43C1351.38 1478.43 1353.34 1476.47 1353.34 1474.23 1353.34 1472 1351.38 1470.04 1349.15 1470.04L1323.97 1470.04 1323.97 1449.06 1385.51 1449.06C1396.41 1449.06 1405.08 1440.11 1405.08 1429.48L1405.08 1371.87C1404.8 1361.24 1395.85 1352.29 1385.23 1352.29ZM1396.41 1429.48C1396.41 1435.64 1391.38 1440.67 1385.23 1440.67L1253.77 1440.67C1247.62 1440.67 1242.59 1435.64 1242.59 1429.48L1242.59 1371.87C1242.59 1365.72 1247.62 1360.68 1253.77 1360.68L1385.23 1360.68C1391.38 1360.68 1396.41 1365.72 1396.41 1371.87L1396.41 1429.48Z" fill="#000000" fill-rule="nonzero" fill-opacity="1"/></g></g></g><g clip-path="url(#clip7)"><g clip-path="url(#clip8)"><g clip-path="url(#clip9)"><path d="M978.227 817.291 846.773 817.291C835.866 817.291 827.195 826.241 827.195 836.869L827.195 894.484C827.195 905.392 836.145 914.062 846.773 914.062L908.305 914.062 908.305 935.039 883.133 935.039C880.895 935.039 878.937 936.997 878.937 939.234 878.937 941.472 880.895 943.43 883.133 943.43L942.147 943.43C944.384 943.43 946.342 941.472 946.342 939.234 946.342 936.997 944.384 935.039 942.147 935.039L916.975 935.039 916.975 914.062 978.506 914.062C989.414 914.062 998.084 905.112 998.084 894.484L998.084 836.869C997.805 826.241 988.855 817.291 978.227 817.291ZM989.414 894.484C989.414 900.638 984.38 905.672 978.227 905.672L846.773 905.672C840.62 905.672 835.586 900.638 835.586 894.484L835.586 836.869C835.586 830.716 840.62 825.681 846.773 825.681L978.227 825.681C984.38 825.681 989.414 830.716 989.414 836.869L989.414 894.484Z" fill="#000000" fill-rule="nonzero" fill-opacity="1"/></g></g></g><g clip-path="url(#clip10)"><g clip-path="url(#clip11)"><g clip-path="url(#clip12)"><path d="M154.359 26.1437 23.6406 26.1437C12.7937 26.1437 4.17187 35.0437 4.17187 45.6124L4.17187 102.906C4.17187 113.753 13.0719 122.375 23.6406 122.375L84.828 122.375 84.828 143.234 59.7968 143.234C57.5718 143.234 55.6249 145.181 55.6249 147.406 55.6249 149.631 57.5718 151.578 59.7968 151.578L118.481 151.578C120.706 151.578 122.653 149.631 122.653 147.406 122.653 145.181 120.706 143.234 118.481 143.234L93.4498 143.234 93.4498 122.375 154.637 122.375C165.484 122.375 174.106 113.475 174.106 102.906L174.106 45.6124C173.828 35.0437 164.928 26.1437 154.359 26.1437ZM165.484 102.906C165.484 109.025 160.478 114.031 154.359 114.031L23.6406 114.031C17.5218 114.031 12.5156 109.025 12.5156 102.906L12.5156 45.6124C12.5156 39.4937 17.5218 34.4874 23.6406 34.4874L154.359 34.4874C160.478 34.4874 165.484 39.4937 165.484 45.6124L165.484 102.906Z" fill="#000000" fill-rule="nonzero" fill-opacity="1" transform="matrix(1.00562 0 0 1 1632 796)"/></g></g></g><g clip-path="url(#clip13)"><g clip-path="url(#clip14)"><g clip-path="url(#clip15)"><path d="M154.359 26.1438 23.6406 26.1438C12.7938 26.1438 4.17188 35.0438 4.17188 45.6125L4.17188 102.906C4.17188 113.753 13.0719 122.375 23.6406 122.375L84.8282 122.375 84.8282 143.234 59.7969 143.234C57.5719 143.234 55.625 145.181 55.625 147.406 55.625 149.631 57.5719 151.578 59.7969 151.578L118.481 151.578C120.706 151.578 122.653 149.631 122.653 147.406 122.653 145.181 120.706 143.234 118.481 143.234L93.45 143.234 93.45 122.375 154.638 122.375C165.484 122.375 174.106 113.475 174.106 102.906L174.106 45.6125C173.828 35.0438 164.928 26.1438 154.359 26.1438ZM165.484 102.906C165.484 109.025 160.478 114.031 154.359 114.031L23.6406 114.031C17.5219 114.031 12.5156 109.025 12.5156 102.906L12.5156 45.6125C12.5156 39.4938 17.5219 34.4875 23.6406 34.4875L154.359 34.4875C160.478 34.4875 165.484 39.4938 165.484 45.6125L165.484 102.906Z" fill="#000000" fill-rule="nonzero" fill-opacity="1" transform="matrix(1.00562 0 0 1 3032 1400)"/></g></g></g><g clip-path="url(#clip16)"><g clip-path="url(#clip17)"><g clip-path="url(#clip18)"><path d="M154.359 26.1437 23.6406 26.1437C12.7937 26.1437 4.17187 35.0437 4.17187 45.6124L4.17187 102.906C4.17187 113.753 13.0719 122.375 23.6406 122.375L84.828 122.375 84.828 143.234 59.7968 143.234C57.5718 143.234 55.6249 145.181 55.6249 147.406 55.6249 149.631 57.5718 151.578 59.7968 151.578L118.481 151.578C120.706 151.578 122.653 149.631 122.653 147.406 122.653 145.181 120.706 143.234 118.481 143.234L93.4498 143.234 93.4498 122.375 154.637 122.375C165.484 122.375 174.106 113.475 174.106 102.906L174.106 45.6124C173.828 35.0437 164.928 26.1437 154.359 26.1437ZM165.484 102.906C165.484 109.025 160.478 114.031 154.359 114.031L23.6406 114.031C17.5218 114.031 12.5156 109.025 12.5156 102.906L12.5156 45.6124C12.5156 39.4937 17.5218 34.4874 23.6406 34.4874L154.359 34.4874C160.478 34.4874 165.484 39.4937 165.484 45.6124L165.484 102.906Z" fill="#000000" fill-rule="nonzero" fill-opacity="1" transform="matrix(1 0 0 1 2604 819)"/></g></g></g><g clip-path="url(#clip19)"><g clip-path="url(#clip20)"><g clip-path="url(#clip21)"><path d="M3598.23 847.291 3466.77 847.291C3455.87 847.291 3447.2 856.241 3447.2 866.869L3447.2 924.484C3447.2 935.392 3456.15 944.062 3466.77 944.062L3528.3 944.062 3528.3 965.039 3503.13 965.039C3500.9 965.039 3498.94 966.997 3498.94 969.234 3498.94 971.472 3500.9 973.43 3503.13 973.43L3562.15 973.43C3564.38 973.43 3566.34 971.472 3566.34 969.234 3566.34 966.997 3564.38 965.039 3562.15 965.039L3536.98 965.039 3536.98 944.062 3598.51 944.062C3609.41 944.062 3618.08 935.112 3618.08 924.484L3618.08 866.869C3617.8 856.241 3608.85 847.291 3598.23 847.291ZM3609.41 924.484C3609.41 930.637 3604.38 935.672 3598.23 935.672L3466.77 935.672C3460.62 935.672 3455.59 930.637 3455.59 924.484L3455.59 866.869C3455.59 860.716 3460.62 855.681 3466.77 855.681L3598.23 855.681C3604.38 855.681 3609.41 860.716 3609.41 866.869L3609.41 924.484Z" fill="#000000" fill-rule="nonzero" fill-opacity="1"/></g></g></g><g clip-path="url(#clip22)"><g clip-path="url(#clip23)"><g clip-path="url(#clip24)"><path d="M86.636 17.6609C85.6625 16.6875 84.1328 16.6875 83.1594 17.6609L32.4016 66.8891C31.9844 67.3063 31.4281 67.3063 31.0109 66.8891L5.84063 42.4141C4.86719 41.4406 3.3375 41.4406 2.36406 42.4141 1.39063 43.3875 1.39063 44.9172 2.36406 45.8906L27.5344 70.3656C28.6469 71.4781 30.1766 72.0344 31.5672 72.0344 33.0969 72.0344 34.4875 71.4781 35.6 70.3656L86.3578 21.1375C87.4703 20.1641 87.4703 18.6344 86.636 17.6609Z" stroke="#08CE88" stroke-width="4.17188" stroke-linecap="butt" stroke-linejoin="miter" stroke-miterlimit="4" stroke-opacity="1" fill="#08CE88" fill-rule="nonzero" fill-opacity="1" transform="matrix(1 0 0 1.01124 2647 997)"/></g></g></g><path d="M1230.91 1418.31 1225.4 1417.92 1219.75 1416.71 1214.17 1414.73 1208.65 1412.03 1203.21 1408.64 1197.86 1404.59 1192.59 1399.9 1187.42 1394.61 1182.36 1388.74 1177.4 1382.31 1172.56 1375.35 1167.84 1367.88 1163.26 1359.93 1158.82 1351.52 1154.53 1342.67 1150.4 1333.41 1146.44 1323.76 1142.66 1313.73 1135.69 1292.72 1129.56 1270.52 1124.36 1247.35 1120.17 1223.39 1117.08 1198.85 1115.16 1173.91 1114.5 1148.82 1113.84 1123.8 1113.85 1123.92 1111.94 1099.09 1111.95 1099.2 1108.86 1074.76 1108.88 1074.87 1104.71 1051.02 1104.73 1051.13 1099.56 1028.06 1099.58 1028.17 1093.49 1006.08 1093.52 1006.2 1086.59 985.284 1086.62 985.371 1082.86 975.417 1082.89 975.477 1078.95 965.89 1078.98 965.953 1074.88 956.757 1074.91 956.824 1070.65 948.043 1070.69 948.114 1066.29 939.774 1066.33 939.848 1061.79 931.973 1061.84 932.053 1057.17 924.667 1057.23 924.752 1052.45 917.88 1052.51 917.971 1047.63 911.638 1047.71 911.736 1042.73 905.965 1042.83 906.069 1037.76 900.886 1037.88 900.996 1032.74 896.425 1032.88 896.54 1027.69 892.605 1028.26 892.923 1023.37 891.087 1024.98 886.796 1030.19 888.749 1035.72 892.941 1040.99 897.626 1046.15 902.917 1051.22 908.789 1056.18 915.217 1061.02 922.177 1065.74 929.644 1070.32 937.596 1074.76 946.008 1079.05 954.857 1083.18 964.118 1087.14 973.768 1090.92 983.797 1097.89 1004.81 1104.02 1027.01 1109.22 1050.18 1113.41 1074.14 1116.5 1098.68 1118.42 1123.62 1119.08 1148.7 1119.74 1173.73 1119.73 1173.61 1121.64 1198.44 1121.63 1198.33 1124.71 1222.76 1124.7 1222.66 1128.87 1246.51 1128.85 1246.4 1134.02 1269.46 1134 1269.36 1140.09 1291.44 1140.06 1291.33 1146.99 1312.24 1146.96 1312.16 1150.72 1322.11 1150.69 1322.05 1154.62 1331.64 1154.6 1331.58 1158.7 1340.77 1158.67 1340.71 1162.92 1349.49 1162.89 1349.42 1167.29 1357.75 1167.25 1357.68 1171.79 1365.56 1171.74 1365.48 1176.41 1372.86 1176.35 1372.78 1181.13 1379.65 1181.06 1379.56 1185.95 1385.89 1185.87 1385.79 1190.85 1391.56 1190.75 1391.46 1195.81 1396.64 1195.7 1396.53 1200.83 1401.1 1200.69 1400.99 1205.89 1404.92 1205.72 1404.81 1210.97 1408.08 1210.77 1407.97 1216.06 1410.56 1215.82 1410.45 1221.14 1412.33 1220.86 1412.25 1226.2 1413.4 1225.89 1413.36 1231.24 1413.74ZM1024.05 903.434 1002.5 881.5 1032.97 877.424Z" fill="#000000" fill-rule="nonzero" fill-opacity="1"/><path d="M0.167802-2.28551 5.56209-1.88947 11.0885-0.686962 16.5572 1.27289 21.9549 3.95329 27.2738 7.3199 32.5083 11.3416 37.6537 15.99 42.7049 21.2388 47.6562 27.063 52.501 33.4383 57.2319 40.3409 61.8411 47.747 66.3202 55.6331 70.6602 63.9756 74.8522 72.7508 78.8866 81.9351 82.754 91.5048 86.45 101.45 93.2572 122.287 99.2438 144.299 104.325 167.279 108.419 191.036 111.445 215.377 113.321 240.11 113.963 264.982 114.604 289.798 114.598 289.684 116.466 314.305 116.455 314.195 119.467 338.428 119.452 338.322 123.527 361.972 123.507 361.867 128.564 384.741 128.538 384.634 134.495 406.538 134.462 406.427 141.237 427.166 141.207 427.079 144.875 436.951 144.852 436.891 148.694 446.399 148.668 446.336 152.674 455.456 152.643 455.389 156.803 464.097 156.768 464.027 161.071 472.297 161.03 472.223 165.466 480.033 165.419 479.953 169.977 487.277 169.921 487.193 174.592 494.007 174.526 493.916 179.299 500.197 179.221 500.099 184.085 505.822 183.991 505.717 188.937 510.857 188.822 510.746 193.841 515.279 193.701 515.163 198.78 519.065 198.153 518.724 202.51 520.277 200.972 524.594 196.274 522.92 190.836 518.741 185.69 514.093 180.639 508.844 175.688 503.02 170.843 496.645 166.112 489.742 161.503 482.336 157.024 474.45 152.684 466.108 148.492 457.332 144.458 448.148 140.59 438.578 136.894 428.633 130.087 407.796 124.101 385.784 119.02 362.804 114.926 339.047 111.9 314.706 110.024 289.973 109.381 265.101 108.741 240.285 108.747 240.4 106.879 215.778 106.89 215.888 103.877 191.655 103.893 191.761 99.8171 168.111 99.8378 168.216 94.7804 145.342 94.8067 145.449 88.8496 123.545 88.8825 123.656 82.1075 102.917 82.1377 103.004 78.4691 93.1317 78.4925 93.1921 74.65 83.6842 74.6766 83.7471 70.6705 74.6274 70.7008 74.6936 66.5414 65.9864 66.5762 66.0562 62.2737 57.7858 62.314 57.86 57.8785 50.0506 57.9256 50.1297 53.3674 42.8056 53.4227 42.8903 48.7521 36.0758 48.8178 36.1668 44.0449 29.8861 44.1235 29.9839 39.2587 24.2613 39.3534 24.3661 34.4068 19.2259 34.5218 19.3373 29.5035 14.8037 29.6436 14.9205 24.564 11.0178 24.7346 11.137 19.6039 7.88946 19.8103 8.00562 14.6387 5.43754 14.8848 5.54232 9.68251 3.67794 9.9684 3.75989 4.74569 2.62347 5.06513 2.66972-0.167802 2.28551ZM202.009 507.944 223.344 530.083 192.832 533.867Z" fill="#000000" fill-rule="nonzero" fill-opacity="1" transform="matrix(1 0 0 -1 1409.5 1415.58)"/><path d="M2139 670 2139 1792.69" stroke="#0070C0" stroke-width="8.02083" stroke-linecap="butt" stroke-linejoin="miter" stroke-miterlimit="8" stroke-dasharray="32.0833 24.0625" stroke-opacity="1" fill="none" fill-rule="evenodd"/><rect x="707.5" y="602.5" width="165" height="165" stroke="#000000" stroke-width="4.58333" stroke-linecap="butt" stroke-linejoin="miter" stroke-miterlimit="8" stroke-opacity="1" fill="none"/><text fill="#000000" fill-opacity="1" font-family="Times,Times_MSFontService,sans-serif" font-style="normal" font-variant="normal" font-weight="400" font-stretch="normal" font-size="83" text-anchor="start" direction="ltr" writing-mode="lr-tb" unicode-bidi="normal" text-decoration="none" transform="matrix(1 0 0 1 759.815 709)">A</text><rect x="981.5" y="602.5" width="165" height="165" stroke="#000000" stroke-width="4.58333" stroke-linecap="butt" stroke-linejoin="miter" stroke-miterlimit="8" stroke-opacity="1" fill="none"/><text fill="#000000" fill-opacity="1" font-family="Times,Times_MSFontService,sans-serif" font-style="normal" font-variant="normal" font-weight="400" font-stretch="normal" font-size="83" text-anchor="start" direction="ltr" writing-mode="lr-tb" unicode-bidi="normal" text-decoration="none" transform="matrix(1 0 0 1 1035.82 709)">B</text><path d="M872.5 682.208 976.905 682.209 976.905 686.792 872.5 686.792ZM959.787 671.099 981.229 684.5 959.787 697.902C958.713 698.573 957.299 698.246 956.629 697.173 955.958 696.1 956.284 694.686 957.357 694.015L975.691 682.557 975.691 686.444 957.357 674.985C956.284 674.314 955.958 672.901 956.629 671.827 957.3 670.754 958.713 670.428 959.787 671.099Z" fill="#000000" fill-rule="nonzero" fill-opacity="1"/><rect x="1518.5" y="1642.5" width="165" height="165" stroke="#FF0000" stroke-width="4.58333" stroke-linecap="butt" stroke-linejoin="miter" stroke-miterlimit="8" stroke-opacity="1" fill="none"/><text fill="#FF0000" fill-opacity="1" font-family="Times,Times_MSFontService,sans-serif" font-style="normal" font-variant="normal" font-weight="400" font-stretch="normal" font-size="83" text-anchor="start" direction="ltr" writing-mode="lr-tb" unicode-bidi="normal" text-decoration="none" transform="matrix(1 0 0 1 1572.72 1749)">C</text><path d="M1409.5 1723.21 1513.91 1723.21 1513.91 1727.79 1409.5 1727.79ZM1496.79 1712.1 1518.23 1725.5 1496.79 1738.9C1495.71 1739.57 1494.3 1739.25 1493.63 1738.17 1492.96 1737.1 1493.28 1735.69 1494.36 1735.02L1512.69 1723.56 1512.69 1727.44 1494.36 1715.99C1493.28 1715.31 1492.96 1713.9 1493.63 1712.83 1494.3 1711.75 1495.71 1711.43 1496.79 1712.1Z" fill="#000000" fill-rule="nonzero" fill-opacity="1"/><rect x="1038.5" y="1072.5" width="165" height="165" stroke="#000000" stroke-width="4.58333" stroke-linecap="butt" stroke-linejoin="miter" stroke-miterlimit="8" stroke-opacity="1" fill="#FFFFFF" fill-opacity="1"/><text fill="#000000" fill-opacity="1" font-family="Times,Times_MSFontService,sans-serif" font-style="normal" font-variant="normal" font-weight="400" font-stretch="normal" font-size="83" text-anchor="start" direction="ltr" writing-mode="lr-tb" unicode-bidi="normal" text-decoration="none" transform="matrix(1 0 0 1 1092.57 1179)">C</text><rect x="1444.5" y="1072.5" width="165" height="165" stroke="#000000" stroke-width="4.58333" stroke-linecap="butt" stroke-linejoin="miter" stroke-miterlimit="8" stroke-opacity="1" fill="#FFFFFF" fill-opacity="1"/><text fill="#000000" fill-opacity="1" font-family="Times,Times_MSFontService,sans-serif" font-style="normal" font-variant="normal" font-weight="400" font-stretch="normal" font-size="83" text-anchor="start" direction="ltr" writing-mode="lr-tb" unicode-bidi="normal" text-decoration="none" transform="matrix(1 0 0 1 1498.55 1179)">C</text><rect x="1511.5" y="611.5" width="165" height="165" stroke="#000000" stroke-width="4.58333" stroke-linecap="butt" stroke-linejoin="miter" stroke-miterlimit="8" stroke-opacity="1" fill="none"/><text fill="#000000" fill-opacity="1" font-family="Times,Times_MSFontService,sans-serif" font-style="normal" font-variant="normal" font-weight="400" font-stretch="normal" font-size="83" text-anchor="start" direction="ltr" writing-mode="lr-tb" unicode-bidi="normal" text-decoration="none" transform="matrix(1 0 0 1 1563.89 718)">A</text><rect x="1785.5" y="611.5" width="165" height="165" stroke="#000000" stroke-width="4.58333" stroke-linecap="butt" stroke-linejoin="miter" stroke-miterlimit="8" stroke-opacity="1" fill="none"/><text fill="#000000" fill-opacity="1" font-family="Times,Times_MSFontService,sans-serif" font-style="normal" font-variant="normal" font-weight="400" font-stretch="normal" font-size="83" text-anchor="start" direction="ltr" writing-mode="lr-tb" unicode-bidi="normal" text-decoration="none" transform="matrix(1 0 0 1 1839.89 718)">B</text><path d="M1676.5 691.208 1780.91 691.208 1780.91 695.792 1676.5 695.792ZM1763.79 680.098 1785.23 693.5 1763.79 706.902C1762.71 707.573 1761.3 707.246 1760.63 706.173 1759.96 705.1 1760.28 703.686 1761.36 703.015L1779.69 691.557 1779.69 695.443 1761.36 683.985C1760.28 683.314 1759.96 681.9 1760.63 680.827 1761.3 679.754 1762.71 679.428 1763.79 680.098Z" fill="#000000" fill-rule="nonzero" fill-opacity="1"/><rect x="970.5" y="1642.5" width="165" height="165" stroke="#000000" stroke-width="4.58333" stroke-linecap="butt" stroke-linejoin="miter" stroke-miterlimit="8" stroke-opacity="1" fill="none"/><text fill="#000000" fill-opacity="1" font-family="Times,Times_MSFontService,sans-serif" font-style="normal" font-variant="normal" font-weight="400" font-stretch="normal" font-size="83" text-anchor="start" direction="ltr" writing-mode="lr-tb" unicode-bidi="normal" text-decoration="none" transform="matrix(1 0 0 1 1023.01 1749)">A</text><rect x="1244.5" y="1642.5" width="165" height="165" stroke="#000000" stroke-width="4.58333" stroke-linecap="butt" stroke-linejoin="miter" stroke-miterlimit="8" stroke-opacity="1" fill="none"/><text fill="#000000" fill-opacity="1" font-family="Times,Times_MSFontService,sans-serif" font-style="normal" font-variant="normal" font-weight="400" font-stretch="normal" font-size="83" text-anchor="start" direction="ltr" writing-mode="lr-tb" unicode-bidi="normal" text-decoration="none" transform="matrix(1 0 0 1 1299.01 1749)">B</text><path d="M1135.5 1723.21 1239.91 1723.21 1239.91 1727.79 1135.5 1727.79ZM1222.79 1712.1 1244.23 1725.5 1222.79 1738.9C1221.71 1739.57 1220.3 1739.25 1219.63 1738.17 1218.96 1737.1 1219.28 1735.69 1220.36 1735.02L1238.69 1723.56 1238.69 1727.44 1220.36 1715.99C1219.28 1715.31 1218.96 1713.9 1219.63 1712.83 1220.3 1711.75 1221.71 1711.43 1222.79 1712.1Z" fill="#000000" fill-rule="nonzero" fill-opacity="1"/><rect x="3320.5" y="1642.5" width="165" height="165" stroke="#00B050" stroke-width="4.58333" stroke-linecap="butt" stroke-linejoin="miter" stroke-miterlimit="8" stroke-opacity="1" fill="none"/><text fill="#00B050" fill-opacity="1" font-family="Times,Times_MSFontService,sans-serif" font-style="normal" font-variant="normal" font-weight="400" font-stretch="normal" font-size="83" text-anchor="start" direction="ltr" writing-mode="lr-tb" unicode-bidi="normal" text-decoration="none" transform="matrix(1 0 0 1 3374.88 1749)">C</text><path d="M3211.5 1722.21 3315.91 1722.21 3315.91 1726.79 3211.5 1726.79ZM3298.79 1711.1 3320.23 1724.5 3298.79 1737.9C3297.71 1738.57 3296.3 1738.25 3295.63 1737.17 3294.96 1736.1 3295.28 1734.69 3296.36 1734.02L3314.69 1722.56 3314.69 1726.44 3296.36 1714.99C3295.28 1714.31 3294.96 1712.9 3295.63 1711.83 3296.3 1710.75 3297.71 1710.43 3298.79 1711.1Z" fill="#000000" fill-rule="nonzero" fill-opacity="1"/><rect x="2772.5" y="1642.5" width="165" height="165" stroke="#000000" stroke-width="4.58333" stroke-linecap="butt" stroke-linejoin="miter" stroke-miterlimit="8" stroke-opacity="1" fill="none"/><text fill="#000000" fill-opacity="1" font-family="Times,Times_MSFontService,sans-serif" font-style="normal" font-variant="normal" font-weight="400" font-stretch="normal" font-size="83" text-anchor="start" direction="ltr" writing-mode="lr-tb" unicode-bidi="normal" text-decoration="none" transform="matrix(1 0 0 1 2825.16 1749)">A</text><rect x="3046.5" y="1642.5" width="165" height="165" stroke="#000000" stroke-width="4.58333" stroke-linecap="butt" stroke-linejoin="miter" stroke-miterlimit="8" stroke-opacity="1" fill="none"/><text fill="#000000" fill-opacity="1" font-family="Times,Times_MSFontService,sans-serif" font-style="normal" font-variant="normal" font-weight="400" font-stretch="normal" font-size="83" text-anchor="start" direction="ltr" writing-mode="lr-tb" unicode-bidi="normal" text-decoration="none" transform="matrix(1 0 0 1 3101.17 1749)">B</text><path d="M2937.5 1722.21 3041.91 1722.21 3041.91 1726.79 2937.5 1726.79ZM3024.79 1711.1 3046.23 1724.5 3024.79 1737.9C3023.71 1738.57 3022.3 1738.25 3021.63 1737.17 3020.96 1736.1 3021.28 1734.69 3022.36 1734.02L3040.69 1722.56 3040.69 1726.44 3022.36 1714.99C3021.28 1714.31 3020.96 1712.9 3021.63 1711.83 3022.3 1710.75 3023.71 1710.43 3024.79 1711.1Z" fill="#000000" fill-rule="nonzero" fill-opacity="1"/><rect x="2881.5" y="622.5" width="165" height="165" stroke="#00B050" stroke-width="4.58333" stroke-linecap="butt" stroke-linejoin="miter" stroke-miterlimit="8" stroke-opacity="1" fill="none"/><text fill="#00B050" fill-opacity="1" font-family="Times,Times_MSFontService,sans-serif" font-style="normal" font-variant="normal" font-weight="400" font-stretch="normal" font-size="83" text-anchor="start" direction="ltr" writing-mode="lr-tb" unicode-bidi="normal" text-decoration="none" transform="matrix(1 0 0 1 2936.17 729)">C</text><path d="M2772.5 702.208 2876.91 702.208 2876.91 706.792 2772.5 706.792ZM2859.79 691.098 2881.23 704.5 2859.79 717.902C2858.71 718.573 2857.3 718.246 2856.63 717.173 2855.96 716.1 2856.28 714.686 2857.36 714.015L2875.69 702.557 2875.69 706.443 2857.36 694.985C2856.28 694.314 2855.96 692.9 2856.63 691.827 2857.3 690.754 2858.71 690.428 2859.79 691.098Z" fill="#000000" fill-rule="nonzero" fill-opacity="1"/><rect x="2334.5" y="622.5" width="165" height="165" stroke="#000000" stroke-width="4.58333" stroke-linecap="butt" stroke-linejoin="miter" stroke-miterlimit="8" stroke-opacity="1" fill="none"/><text fill="#000000" fill-opacity="1" font-family="Times,Times_MSFontService,sans-serif" font-style="normal" font-variant="normal" font-weight="400" font-stretch="normal" font-size="83" text-anchor="start" direction="ltr" writing-mode="lr-tb" unicode-bidi="normal" text-decoration="none" transform="matrix(1 0 0 1 2386.45 729)">A</text><rect x="2607.5" y="622.5" width="165" height="165" stroke="#000000" stroke-width="4.58333" stroke-linecap="butt" stroke-linejoin="miter" stroke-miterlimit="8" stroke-opacity="1" fill="none"/><text fill="#000000" fill-opacity="1" font-family="Times,Times_MSFontService,sans-serif" font-style="normal" font-variant="normal" font-weight="400" font-stretch="normal" font-size="83" text-anchor="start" direction="ltr" writing-mode="lr-tb" unicode-bidi="normal" text-decoration="none" transform="matrix(1 0 0 1 2662.45 729)">B</text><path d="M2499.5 702.208 2603.91 702.208 2603.91 706.792 2499.5 706.792ZM2586.79 691.098 2608.23 704.5 2586.79 717.902C2585.71 718.573 2584.3 718.246 2583.63 717.173 2582.96 716.1 2583.28 714.686 2584.36 714.015L2602.69 702.557 2602.69 706.443 2584.36 694.985C2583.28 694.314 2582.96 692.9 2583.63 691.827 2584.3 690.754 2585.71 690.428 2586.79 691.098Z" fill="#000000" fill-rule="nonzero" fill-opacity="1"/><rect x="3741.5" y="629.5" width="165" height="165" stroke="#00B050" stroke-width="4.58333" stroke-linecap="butt" stroke-linejoin="miter" stroke-miterlimit="8" stroke-opacity="1" fill="none"/><text fill="#00B050" fill-opacity="1" font-family="Times,Times_MSFontService,sans-serif" font-style="normal" font-variant="normal" font-weight="400" font-stretch="normal" font-size="83" text-anchor="start" direction="ltr" writing-mode="lr-tb" unicode-bidi="normal" text-decoration="none" transform="matrix(1 0 0 1 3796.23 736)">C</text><path d="M3633.5 710.208 3737.91 710.209 3737.91 714.792 3633.5 714.792ZM3720.79 699.099 3742.23 712.5 3720.79 725.902C3719.71 726.573 3718.3 726.247 3717.63 725.173 3716.96 724.1 3717.28 722.686 3718.36 722.015L3736.69 710.557 3736.69 714.444 3718.36 702.985C3717.28 702.315 3716.96 700.901 3717.63 699.828 3718.3 698.754 3719.71 698.428 3720.79 699.099Z" fill="#000000" fill-rule="nonzero" fill-opacity="1"/><rect x="3194.5" y="629.5" width="165" height="165" stroke="#000000" stroke-width="4.58333" stroke-linecap="butt" stroke-linejoin="miter" stroke-miterlimit="8" stroke-opacity="1" fill="none"/><text fill="#000000" fill-opacity="1" font-family="Times,Times_MSFontService,sans-serif" font-style="normal" font-variant="normal" font-weight="400" font-stretch="normal" font-size="83" text-anchor="start" direction="ltr" writing-mode="lr-tb" unicode-bidi="normal" text-decoration="none" transform="matrix(1 0 0 1 3246.51 736)">A</text><rect x="3468.5" y="629.5" width="165" height="165" stroke="#000000" stroke-width="4.58333" stroke-linecap="butt" stroke-linejoin="miter" stroke-miterlimit="8" stroke-opacity="1" fill="none"/><text fill="#000000" fill-opacity="1" font-family="Times,Times_MSFontService,sans-serif" font-style="normal" font-variant="normal" font-weight="400" font-stretch="normal" font-size="83" text-anchor="start" direction="ltr" writing-mode="lr-tb" unicode-bidi="normal" text-decoration="none" transform="matrix(1 0 0 1 3522.52 736)">B</text><path d="M3359.5 710.208 3463.91 710.209 3463.91 714.792 3359.5 714.792ZM3446.79 699.099 3468.23 712.5 3446.79 725.902C3445.71 726.573 3444.3 726.247 3443.63 725.173 3442.96 724.1 3443.28 722.686 3444.36 722.015L3462.69 710.557 3462.69 714.444 3444.36 702.985C3443.28 702.315 3442.96 700.901 3443.63 699.828 3444.3 698.754 3445.71 698.428 3446.79 699.099Z" fill="#000000" fill-rule="nonzero" fill-opacity="1"/></g></svg>